<?xml version="1.0"?>
<svg width="504" height="152" xmlns="http://www.w3.org/2000/svg" version="1.1">
 <path d="M 76 76 L 148 76 A 72 72 0 0 0 67.5122 4.50204 Z" stroke="#569f38" fill="#569f38"/>
 <path d="M 76 76 L 67.5122 4.50204 A 72 72 0 0 0 23.4319 26.8004 Z" stroke="#90c4e4" fill="#90c4e4"/>
 <path d="M 76 76 L 23.4318 26.8006 A 72 72 0 0 0 4.13301 71.6256 Z" stroke="#4e8cb9" fill="#4e8cb9"/>
 <path d="M 76 76 L 4.13299 71.6258 A 72 72 0 0 0 10.277 105.402 Z" stroke="#90c4e4" fill="#90c4e4"/>
 <path d="M 76 76 L 10.277 105.402 A 72 72 0 0 0 148 76 Z" stroke="#e45721" fill="#e45721"/>
 <rect x="156" y="28" width="16" height="16" stroke="#569f38" fill="#569f38"/>
 <text x="176" y="41" fill="#000000" font-family=".AppleSystemUIFont" font-size="13">Brad King (4792 commits)</text>
 <rect x="156" y="48" width="16" height="16" stroke="#90c4e4" fill="#90c4e4"/>
 <text x="176" y="61" fill="#000000" font-family=".AppleSystemUIFont" font-size="13">Stephen Kelly (1987 commits)</text>
 <rect x="156" y="68" width="16" height="16" stroke="#4e8cb9" fill="#4e8cb9"/>
 <text x="176" y="81" fill="#000000" font-family=".AppleSystemUIFont" font-size="13">Andy Cedilnik (1962 commits)</text>
 <rect x="156" y="88" width="16" height="16" stroke="#90c4e4" fill="#90c4e4"/>
 <text x="176" y="101" fill="#000000" font-family=".AppleSystemUIFont" font-size="13">Bill Hoffman (1366 commits)</text>
 <rect x="156" y="108" width="16" height="16" stroke="#e45721" fill="#e45721"/>
 <text x="176" y="121" fill="#000000" font-family=".AppleSystemUIFont" font-size="13">Minor Contributors (681 contributors, 7720 commits)</text>
</svg>
