<?xml version="1.0"?>
<svg width="323" height="152" xmlns="http://www.w3.org/2000/svg" version="1.1">
 <path d="M 76 76 L 148 76 A 72 72 0 0 0 147.034 64.245 Z" stroke="#e45721" fill="#e45721"/>
 <path d="M 76 76 L 147.034 64.245 A 72 72 0 0 0 145.055 55.6187 Z" stroke="#fcad56" fill="#fcad56"/>
 <path d="M 76 76 L 145.055 55.6187 A 72 72 0 0 0 115.25 15.6392 Z" stroke="#4e8cb9" fill="#4e8cb9"/>
 <path d="M 76 76 L 115.25 15.6392 A 72 72 0 0 0 4.02364 74.1551 Z" stroke="#afd870" fill="#afd870"/>
 <path d="M 76 76 L 4.02363 74.1555 A 72 72 0 1 0 148 76 Z" stroke="#569f38" fill="#569f38"/>
 <rect x="156" y="28" width="16" height="16" stroke="#e45721" fill="#e45721"/>
 <text x="176" y="41" fill="#000000" font-family=".AppleSystemUIFont" font-size="13">&gt;= 50 % - 16 File(s)</text>
 <rect x="156" y="48" width="16" height="16" stroke="#fcad56" fill="#fcad56"/>
 <text x="176" y="61" fill="#000000" font-family=".AppleSystemUIFont" font-size="13">[40,50) % - 12 File(s)</text>
 <rect x="156" y="68" width="16" height="16" stroke="#4e8cb9" fill="#4e8cb9"/>
 <text x="176" y="81" fill="#000000" font-family=".AppleSystemUIFont" font-size="13">[30,40) % - 69 File(s)</text>
 <rect x="156" y="88" width="16" height="16" stroke="#afd870" fill="#afd870"/>
 <text x="176" y="101" fill="#000000" font-family=".AppleSystemUIFont" font-size="13">[20,30) % - 207 File(s)</text>
 <rect x="156" y="108" width="16" height="16" stroke="#569f38" fill="#569f38"/>
 <text x="176" y="121" fill="#000000" font-family=".AppleSystemUIFont" font-size="13">[10,20) % - 309 File(s)</text>
</svg>
