<?xml version="1.0"?>
<svg width="862" height="368" xmlns="http://www.w3.org/2000/svg" version="1.1">
 <text x="4" y="325" fill="#000000" font-family=".AppleSystemUIFont" font-size="13">2004-12-07</text>
 <rect x="4" y="200" width="74" height="108" stroke="#4e8cb9" fill="#4e8cb9"/>
 <rect x="4" y="184" width="74" height="16" stroke="#e45721" fill="#e45721"/>
 <text x="84" y="325" fill="#000000" font-family=".AppleSystemUIFont" font-size="13">2006-10-11</text>
 <rect x="82" y="268" width="74" height="40" stroke="#569f38" fill="#569f38"/>
 <rect x="82" y="224" width="74" height="44" stroke="#4e8cb9" fill="#4e8cb9"/>
 <rect x="82" y="188" width="74" height="36" stroke="#e45721" fill="#e45721"/>
 <text x="160" y="325" fill="#000000" font-family=".AppleSystemUIFont" font-size="13">2008-08-14</text>
 <rect x="160" y="80" width="74" height="228" stroke="#569f38" fill="#569f38"/>
 <rect x="160" y="44" width="74" height="36" stroke="#e45721" fill="#e45721"/>
 <text x="239" y="325" fill="#000000" font-family=".AppleSystemUIFont" font-size="13">2010-06-18</text>
 <rect x="238" y="216" width="74" height="92" stroke="#569f38" fill="#569f38"/>
 <rect x="238" y="212" width="74" height="4" stroke="#e45721" fill="#e45721"/>
 <text x="317" y="325" fill="#000000" font-family=".AppleSystemUIFont" font-size="13">2012-04-21</text>
 <rect x="316" y="296" width="74" height="12" stroke="#569f38" fill="#569f38"/>
 <rect x="316" y="268" width="74" height="28" stroke="#e45721" fill="#e45721"/>
 <text x="394" y="325" fill="#000000" font-family=".AppleSystemUIFont" font-size="13">2014-02-23</text>
 <rect x="394" y="300" width="74" height="8" stroke="#569f38" fill="#569f38"/>
 <rect x="394" y="280" width="74" height="20" stroke="#e45721" fill="#e45721"/>
 <text x="473" y="325" fill="#000000" font-family=".AppleSystemUIFont" font-size="13">2015-12-28</text>
 <rect x="472" y="288" width="74" height="20" stroke="#e45721" fill="#e45721"/>
 <text x="552" y="325" fill="#000000" font-family=".AppleSystemUIFont" font-size="13">2017-10-31</text>
 <rect x="550" y="300" width="74" height="8" stroke="#569f38" fill="#569f38"/>
 <rect x="550" y="292" width="74" height="8" stroke="#4e8cb9" fill="#4e8cb9"/>
 <rect x="550" y="280" width="74" height="12" stroke="#e45721" fill="#e45721"/>
 <text x="628" y="325" fill="#000000" font-family=".AppleSystemUIFont" font-size="13">2019-09-04</text>
 <rect x="628" y="304" width="74" height="4" stroke="#e45721" fill="#e45721"/>
 <text x="706" y="325" fill="#000000" font-family=".AppleSystemUIFont" font-size="13">2021-07-08</text>
 <rect x="706" y="256" width="74" height="52" stroke="#4e8cb9" fill="#4e8cb9"/>
 <rect x="706" y="240" width="74" height="16" stroke="#e45721" fill="#e45721"/>
 <text x="784" y="325" fill="#000000" font-family=".AppleSystemUIFont" font-size="13">2023-05-12</text>
 <rect x="784" y="304" width="74" height="4" stroke="#4e8cb9" fill="#4e8cb9"/>
 <rect x="238" y="4" width="16" height="16" stroke="#569f38" fill="#569f38"/>
 <text x="258" y="17" fill="#000000" font-family=".AppleSystemUIFont" font-size="13">Owner</text>
 <rect x="368" y="4" width="16" height="16" stroke="#4e8cb9" fill="#4e8cb9"/>
 <text x="388" y="17" fill="#000000" font-family=".AppleSystemUIFont" font-size="13">Major Contributor</text>
 <rect x="498" y="4" width="16" height="16" stroke="#e45721" fill="#e45721"/>
 <text x="518" y="17" fill="#000000" font-family=".AppleSystemUIFont" font-size="13">Minor Contributor</text>
</svg>
