<?xml version="1.0" encoding="UTF-8" standalone="no"?>
<!DOCTYPE svg PUBLIC "-//W3C//DTD SVG 1.1//EN"
 "http://www.w3.org/Graphics/SVG/1.1/DTD/svg11.dtd">
<!-- Generated by graphviz version 8.1.0 (20231214.1810)
 -->
<!-- Title: name Pages: 1 -->
<svg width="510pt" height="188pt"
 viewBox="0.00 0.00 510.00 188.00" xmlns="http://www.w3.org/2000/svg" xmlns:xlink="http://www.w3.org/1999/xlink">
<g id="graph0" class="graph" transform="scale(1 1) rotate(0) translate(4 184)">
<title>name</title>
<polygon fill="white" stroke="none" points="-4,4 -4,-184 506,-184 506,4 -4,4"/>
<g id="clust1" class="cluster">
<title>cluster_7</title>
<path fill="none" stroke="black" stroke-dasharray="5,2" d="M76,-64C76,-64 482,-64 482,-64 488,-64 494,-70 494,-76 494,-76 494,-104 494,-104 494,-110 488,-116 482,-116 482,-116 76,-116 76,-116 70,-116 64,-110 64,-104 64,-104 64,-76 64,-76 64,-70 70,-64 76,-64"/>
</g>
<!-- C -->
<g id="node1" class="node">
<title>C</title>
<ellipse fill="none" stroke="black" cx="171" cy="-90" rx="27" ry="18"/>
<text text-anchor="middle" x="171" y="-85.9" font-family="Times,serif" font-size="14.00">C</text>
</g>
<!-- D -->
<g id="node2" class="node">
<title>D</title>
<ellipse fill="none" stroke="black" cx="243" cy="-90" rx="27" ry="18"/>
<text text-anchor="middle" x="243" y="-85.9" font-family="Times,serif" font-size="14.00">D</text>
</g>
<!-- C&#45;&gt;D -->
<g id="edge1" class="edge">
<title>C&#45;&gt;D</title>
<path fill="none" stroke="black" d="M198.28,-90C200.46,-90 202.65,-90 204.83,-90"/>
<polygon fill="black" stroke="black" points="204.75,-93.5 214.75,-90 204.75,-86.5 204.75,-93.5"/>
</g>
<!-- E -->
<g id="node3" class="node">
<title>E</title>
<ellipse fill="none" stroke="black" cx="315" cy="-90" rx="27" ry="18"/>
<text text-anchor="middle" x="315" y="-85.9" font-family="Times,serif" font-size="14.00">E</text>
</g>
<!-- D&#45;&gt;E -->
<g id="edge2" class="edge">
<title>D&#45;&gt;E</title>
<path fill="none" stroke="black" d="M270.28,-90C272.46,-90 274.65,-90 276.83,-90"/>
<polygon fill="black" stroke="black" points="276.75,-93.5 286.75,-90 276.75,-86.5 276.75,-93.5"/>
</g>
<!-- F -->
<g id="node4" class="node">
<title>F</title>
<ellipse fill="none" stroke="black" cx="387" cy="-90" rx="27" ry="18"/>
<text text-anchor="middle" x="387" y="-85.9" font-family="Times,serif" font-size="14.00">F</text>
</g>
<!-- E&#45;&gt;F -->
<g id="edge3" class="edge">
<title>E&#45;&gt;F</title>
<path fill="none" stroke="black" d="M342.28,-90C344.46,-90 346.65,-90 348.83,-90"/>
<polygon fill="black" stroke="black" points="348.75,-93.5 358.75,-90 348.75,-86.5 348.75,-93.5"/>
</g>
<!-- G -->
<g id="node5" class="node">
<title>G</title>
<ellipse fill="none" stroke="black" cx="459" cy="-90" rx="27" ry="18"/>
<text text-anchor="middle" x="459" y="-85.9" font-family="Times,serif" font-size="14.00">G</text>
</g>
<!-- F&#45;&gt;G -->
<g id="edge4" class="edge">
<title>F&#45;&gt;G</title>
<path fill="none" stroke="black" d="M414.28,-90C416.46,-90 418.65,-90 420.83,-90"/>
<polygon fill="black" stroke="black" points="420.75,-93.5 430.75,-90 420.75,-86.5 420.75,-93.5"/>
</g>
<!-- H -->
<g id="node6" class="node">
<title>H</title>
<ellipse fill="none" stroke="black" cx="99" cy="-90" rx="27" ry="18"/>
<text text-anchor="middle" x="99" y="-85.9" font-family="Times,serif" font-size="14.00">H</text>
</g>
<!-- G&#45;&gt;H -->
<g id="edge5" class="edge">
<title>G&#45;&gt;H</title>
<path fill="none" stroke="black" d="M446.26,-106.02C438.11,-114.93 426.7,-125.17 414,-130 385.96,-140.66 172.04,-140.66 144,-130 134.87,-126.53 126.41,-120.26 119.35,-113.7"/>
<polygon fill="black" stroke="black" points="122.26,-111.67 112.74,-107.02 117.29,-116.59 122.26,-111.67"/>
</g>
<!-- H&#45;&gt;C -->
<g id="edge6" class="edge">
<title>H&#45;&gt;C</title>
<path fill="none" stroke="black" d="M126.28,-90C128.46,-90 130.65,-90 132.83,-90"/>
<polygon fill="black" stroke="black" points="132.75,-93.5 142.75,-90 132.75,-86.5 132.75,-93.5"/>
</g>
<!-- J -->
<g id="node10" class="node">
<title>J</title>
<ellipse fill="none" stroke="black" cx="63" cy="-18" rx="27" ry="18"/>
<text text-anchor="middle" x="63" y="-13.9" font-family="Times,serif" font-size="14.00">J</text>
</g>
<!-- H&#45;&gt;J -->
<g id="edge9" class="edge">
<title>H&#45;&gt;J</title>
<path fill="none" stroke="black" d="M90.65,-72.76C86.38,-64.46 81.08,-54.15 76.27,-44.79"/>
<polygon fill="black" stroke="black" points="78.99,-43.44 71.3,-36.15 72.77,-46.64 78.99,-43.44"/>
</g>
<!-- A -->
<g id="node7" class="node">
<title>A</title>
<ellipse fill="none" stroke="black" cx="171" cy="-162" rx="27" ry="18"/>
<text text-anchor="middle" x="171" y="-157.9" font-family="Times,serif" font-size="14.00">A</text>
</g>
<!-- A&#45;&gt;C -->
<g id="edge7" class="edge">
<title>A&#45;&gt;C</title>
<path fill="none" stroke="black" d="M171,-143.7C171,-136.24 171,-127.32 171,-118.97"/>
<polygon fill="black" stroke="black" points="174.5,-119.1 171,-109.1 167.5,-119.1 174.5,-119.1"/>
</g>
<!-- B -->
<g id="node8" class="node">
<title>B</title>
<ellipse fill="none" stroke="black" cx="27" cy="-162" rx="27" ry="18"/>
<text text-anchor="middle" x="27" y="-157.9" font-family="Times,serif" font-size="14.00">B</text>
</g>
<!-- I -->
<g id="node9" class="node">
<title>I</title>
<ellipse fill="none" stroke="black" cx="27" cy="-90" rx="27" ry="18"/>
<text text-anchor="middle" x="27" y="-85.9" font-family="Times,serif" font-size="14.00">I</text>
</g>
<!-- B&#45;&gt;I -->
<g id="edge8" class="edge">
<title>B&#45;&gt;I</title>
<path fill="none" stroke="black" d="M27,-143.7C27,-136.24 27,-127.32 27,-118.97"/>
<polygon fill="black" stroke="black" points="30.5,-119.1 27,-109.1 23.5,-119.1 30.5,-119.1"/>
</g>
<!-- I&#45;&gt;J -->
<g id="edge10" class="edge">
<title>I&#45;&gt;J</title>
<path fill="none" stroke="black" d="M35.35,-72.76C39.62,-64.46 44.92,-54.15 49.73,-44.79"/>
<polygon fill="black" stroke="black" points="53.23,-46.64 54.7,-36.15 47.01,-43.44 53.23,-46.64"/>
</g>
</g>
</svg>
