<?xml version="1.0"?>
<svg width="323" height="360" xmlns="http://www.w3.org/2000/svg" version="1.1">
 <polygon points="4,356 4,4 319,4 319,356 4,356" stroke-opacity="0.000000" stroke="#fffffe" fill-opacity="0.000000" fill="#fffffe"/>
 <path d="M 64 201 C 64 201, 16 201, 16 201 C 10 201, 4 207, 4 213 C 4 213, 4 225, 4 225 C 4 231, 10 237, 16 237 C 16 237, 64 237, 64 237 C 70 237, 76 231, 76 225 C 76 225, 76 213, 76 213 C 76 207, 70 201, 64 201" stroke="#000000" fill="#0000ff"/>
 <text x="12" y="223" fill="#000000" font-family=".AppleSystemUIFont" font-size="13">chimaera</text>
 <path d="M 181 86 C 181 86, 181 82, 181 82 C 181 79, 179 75, 177 74 C 177 74, 167 68, 167 68 C 165 67, 160 66, 158 66 C 158 66, 142 66, 142 66 C 140 66, 135 67, 133 68 C 133 68, 123 74, 123 74 C 121 75, 119 79, 119 82 C 119 82, 119 86, 119 86 C 119 89, 121 93, 123 94 C 123 94, 133 100, 133 100 C 135 101, 140 102, 142 102 C 142 102, 158 102, 158 102 C 160 102, 165 101, 167 100 C 167 100, 177 94, 177 94 C 179 93, 181 89, 181 86" stroke="#c0c0c0" fill="none"/>
 <text x="137" y="88" fill="#000000" font-family=".AppleSystemUIFont" font-size="13">read</text>
 <path d="M 50 201 C 62 178, 85 139, 112 111 C 114 108, 117 106, 120 104" stroke="#000000" fill="none"/>
 <polygon points="117,100 127,97 122,106 117,100" stroke="#000000" fill="#000000"/>
 <path d="M 171 174 C 171 174, 129 174, 129 174 C 123 174, 117 180, 117 186 C 117 186, 117 198, 117 198 C 117 204, 123 210, 129 210 C 129 210, 171 210, 171 210 C 177 210, 183 204, 183 198 C 183 198, 183 186, 183 186 C 183 180, 177 174, 171 174" stroke="#000000" fill="#0000ff"/>
 <text x="125" y="196" fill="#000000" font-family=".AppleSystemUIFont" font-size="13">linesave</text>
 <path d="M 76 210 C 86 208, 96 205, 106 203" stroke="#000000" fill="none"/>
 <polygon points="105,199 116,200 107,206 105,199" stroke="#000000" fill="#000000"/>
 <path d="M 176 120 C 176 120, 124 120, 124 120 C 118 120, 112 126, 112 132 C 112 132, 112 144, 112 144 C 112 150, 118 156, 124 156 C 124 156, 176 156, 176 156 C 182 156, 188 150, 188 144 C 188 144, 188 132, 188 132 C 188 126, 182 120, 176 120" stroke="#000000" fill="#0000ff"/>
 <text x="120" y="142" fill="#000000" font-family=".AppleSystemUIFont" font-size="13">submatch</text>
 <path d="M 65 201 C 79 190, 96 177, 112 165 C 113 164, 114 163, 115 163" stroke="#000000" fill="none"/>
 <polygon points="113,159 123,156 117,165 113,159" stroke="#000000" fill="#000000"/>
 <path d="M 169 228 C 169 228, 131 228, 131 228 C 125 228, 119 234, 119 240 C 119 240, 119 252, 119 252 C 119 258, 125 264, 131 264 C 131 264, 169 264, 169 264 C 175 264, 181 258, 181 252 C 181 252, 181 240, 181 240 C 181 234, 175 228, 169 228" stroke="#000000" fill="#0000ff"/>
 <text x="127" y="250" fill="#000000" font-family=".AppleSystemUIFont" font-size="13">nlcount</text>
 <path d="M 76 228 C 87 230, 98 233, 108 236" stroke="#000000" fill="none"/>
 <polygon points="109,233 118,238 107,239 109,233" stroke="#000000" fill="#000000"/>
 <path d="M 317 294 C 317 294, 317 290, 317 290 C 317 287, 314 284, 312 283 C 312 283, 295 276, 295 276 C 292 275, 288 274, 285 274 C 285 274, 258 274, 258 274 C 255 274, 251 275, 248 276 C 248 276, 231 283, 231 283 C 229 284, 226 287, 226 290 C 226 290, 226 294, 226 294 C 226 297, 229 300, 231 301 C 231 301, 248 308, 248 308 C 251 309, 255 310, 258 310 C 258 310, 285 310, 285 310 C 288 310, 292 309, 295 308 C 295 308, 312 301, 312 301 C 314 300, 317 297, 317 294" stroke="#c0c0c0" fill="none"/>
 <text x="249" y="296" fill="#000000" font-family=".AppleSystemUIFont" font-size="13">strncpy</text>
 <path d="M 59 237 C 73 250, 92 265, 112 273 C 145 286, 184 291, 216 292" stroke="#000000" fill="none"/>
 <polygon points="215,289 225,293 215,296 215,289" stroke="#000000" fill="#000000"/>
 <path d="M 186 340 C 186 340, 186 336, 186 336 C 186 333, 183 329, 181 328 C 181 328, 169 322, 169 322 C 167 321, 162 320, 160 320 C 160 320, 140 320, 140 320 C 138 320, 133 321, 131 322 C 131 322, 119 328, 119 328 C 117 329, 114 333, 114 336 C 114 336, 114 340, 114 340 C 114 343, 117 347, 119 348 C 119 348, 131 354, 131 354 C 133 355, 138 356, 140 356 C 140 356, 160 356, 160 356 C 162 356, 167 355, 169 354 C 169 354, 181 348, 181 348 C 183 347, 186 343, 186 340" stroke="#c0c0c0" fill="none"/>
 <text x="134" y="342" fill="#000000" font-family=".AppleSystemUIFont" font-size="13">printf</text>
 <path d="M 55 237 C 68 256, 90 284, 112 306 C 115 309, 118 312, 121 315" stroke="#000000" fill="none"/>
 <polygon points="123,312 129,321 119,317 123,312" stroke="#000000" fill="#000000"/>
 <path d="M 178 210 C 181 213, 185 216, 188 219 C 207 237, 204 248, 224 265 C 227 267, 230 270, 233 272" stroke="#000000" fill="none"/>
 <polygon points="235,270 241,278 231,275 235,270" stroke="#000000" fill="#000000"/>
 <path d="M 287 58 C 287 58, 257 58, 257 58 C 251 58, 245 64, 245 70 C 245 70, 245 82, 245 82 C 245 88, 251 94, 257 94 C 257 94, 287 94, 287 94 C 293 94, 299 88, 299 82 C 299 82, 299 70, 299 70 C 299 64, 293 58, 287 58" stroke="#000000" fill="#0000ff"/>
 <text x="258" y="80" fill="#000000" font-family=".AppleSystemUIFont" font-size="13">kanji</text>
 <path d="M 187 120 C 202 112, 219 103, 234 95" stroke="#000000" fill="none"/>
 <polygon points="233,91 243,90 236,97 233,91" stroke="#000000" fill="#000000"/>
 <path d="M 300 112 C 300 112, 243 112, 243 112 C 237 112, 231 118, 231 124 C 231 124, 231 136, 231 136 C 231 142, 237 148, 243 148 C 243 148, 300 148, 300 148 C 306 148, 312 142, 312 136 C 312 136, 312 124, 312 124 C 312 118, 306 112, 300 112" stroke="#000000" fill="#0000ff"/>
 <text x="240" y="134" fill="#000000" font-family=".AppleSystemUIFont" font-size="13">gotamatch</text>
 <path d="M 188 135 C 198 135, 209 134, 220 133" stroke="#000000" fill="none"/>
 <polygon points="219,130 230,133 220,137 219,130" stroke="#000000" fill="#000000"/>
 <path d="M 307 166 C 307 166, 236 166, 236 166 C 230 166, 224 172, 224 178 C 224 178, 224 190, 224 190 C 224 196, 230 202, 236 202 C 236 202, 307 202, 307 202 C 313 202, 319 196, 319 190 C 319 190, 319 178, 319 178 C 319 172, 313 166, 307 166" stroke="#000000" fill="#0000ff"/>
 <text x="233" y="188" fill="#000000" font-family=".AppleSystemUIFont" font-size="13">execstrategy</text>
 <path d="M 188 152 C 197 156, 205 159, 214 162" stroke="#000000" fill="none"/>
 <polygon points="215,159 223,166 212,166 215,159" stroke="#000000" fill="#000000"/>
 <path d="M 292 220 C 292 220, 251 220, 251 220 C 245 220, 239 226, 239 232 C 239 232, 239 244, 239 244 C 239 250, 245 256, 251 256 C 251 256, 292 256, 292 256 C 298 256, 304 250, 304 244 C 304 244, 304 232, 304 232 C 304 226, 298 220, 292 220" stroke="#000000" fill="#0000ff"/>
 <text x="248" y="242" fill="#000000" font-family=".AppleSystemUIFont" font-size="13">regexec</text>
 <path d="M 178 156 C 181 159, 185 162, 188 165 C 207 183, 204 194, 224 211 C 226 213, 228 214, 230 216" stroke="#000000" fill="none"/>
 <polygon points="232,213 238,222 228,219 232,213" stroke="#000000" fill="#000000"/>
 <path d="M 287 4 C 287 4, 257 4, 257 4 C 251 4, 245 10, 245 16 C 245 16, 245 28, 245 28 C 245 34, 251 40, 257 40 C 257 40, 287 40, 287 40 C 293 40, 299 34, 299 28 C 299 28, 299 16, 299 16 C 299 10, 293 4, 287 4" stroke="#000000" fill="#0000ff"/>
 <text x="261" y="26" fill="#000000" font-family=".AppleSystemUIFont" font-size="13">fold</text>
 <path d="M 179 120 C 182 117, 185 114, 188 111 C 209 87, 201 72, 224 49 C 227 46, 231 43, 235 40" stroke="#000000" fill="none"/>
 <polygon points="233,36 243,34 237,42 233,36" stroke="#000000" fill="#000000"/>
</svg>
