<?xml version="1.0"?>
<svg width="364" height="95" xmlns="http://www.w3.org/2000/svg" version="1.1">
 <text x="12" y="88" fill="#000000" font-family=".AppleSystemUIFont" font-size="13" xml:space='preserve'> 0 </text>
 <rect x="4" y="7" width="32" height="64" stroke="#4e8cb9" fill="#4e8cb9"/>
 <text x="7" y="44" fill="#ffffff" font-family=".AppleSystemUIFont" font-size="13">943</text>
 <text x="44" y="88" fill="#000000" font-family=".AppleSystemUIFont" font-size="13" xml:space='preserve'> 36 </text>
 <rect x="40" y="39" width="32" height="32" stroke="#4e8cb9" fill="#4e8cb9"/>
 <text x="48" y="60" fill="#ffffff" font-family=".AppleSystemUIFont" font-size="13">10</text>
 <text x="80" y="88" fill="#000000" font-family=".AppleSystemUIFont" font-size="13" xml:space='preserve'> 72 </text>
 <rect x="76" y="50" width="32" height="21" stroke="#4e8cb9" fill="#4e8cb9"/>
 <text x="88" y="65" fill="#ffffff" font-family=".AppleSystemUIFont" font-size="13">2</text>
 <text x="113" y="88" fill="#000000" font-family=".AppleSystemUIFont" font-size="13" xml:space='preserve'> 108 </text>
 <rect x="112" y="45" width="32" height="26" stroke="#4e8cb9" fill="#4e8cb9"/>
 <text x="123" y="63" fill="#ffffff" font-family=".AppleSystemUIFont" font-size="13">4</text>
 <text x="149" y="88" fill="#000000" font-family=".AppleSystemUIFont" font-size="13" xml:space='preserve'> 144 </text>
 <rect x="148" y="55" width="32" height="16" stroke="#4e8cb9" fill="#4e8cb9"/>
 <text x="161" y="68" fill="#ffffff" font-family=".AppleSystemUIFont" font-size="13">1</text>
 <text x="185" y="88" fill="#000000" font-family=".AppleSystemUIFont" font-size="13" xml:space='preserve'> 180 </text>
 <rect x="184" y="47" width="32" height="24" stroke="#4e8cb9" fill="#4e8cb9"/>
 <text x="195" y="64" fill="#ffffff" font-family=".AppleSystemUIFont" font-size="13">3</text>
 <text x="221" y="88" fill="#000000" font-family=".AppleSystemUIFont" font-size="13" xml:space='preserve'> 216 </text>
 <rect x="220" y="55" width="32" height="16" stroke="#4e8cb9" fill="#4e8cb9"/>
 <text x="233" y="68" fill="#ffffff" font-family=".AppleSystemUIFont" font-size="13">1</text>
 <text x="256" y="88" fill="#000000" font-family=".AppleSystemUIFont" font-size="13" xml:space='preserve'> 252 </text>
 <text x="292" y="88" fill="#000000" font-family=".AppleSystemUIFont" font-size="13" xml:space='preserve'> 288 </text>
 <text x="328" y="88" fill="#000000" font-family=".AppleSystemUIFont" font-size="13" xml:space='preserve'> 324 </text>
 <rect x="328" y="55" width="32" height="16" stroke="#4e8cb9" fill="#4e8cb9"/>
 <text x="341" y="68" fill="#ffffff" font-family=".AppleSystemUIFont" font-size="13">1</text>
</svg>
