<?xml version="1.0"?>
<svg width="465" height="465" xmlns="http://www.w3.org/2000/svg" version="1.1">
 <ellipse cx="185" cy="236" rx="116" ry="116" stroke="#4e8cb9" fill="#4e8cb9"/>
 <text x="177" y="225" fill="#ffffff" font-family=".AppleSystemUIFont" font-size="13">24</text>
 <text x="165" y="241" fill="#ffffff" font-family=".AppleSystemUIFont" font-size="13">Global</text>
 <text x="155" y="257" fill="#ffffff" font-family=".AppleSystemUIFont" font-size="13">Functions</text>
 <ellipse cx="378" cy="236" rx="73" ry="73" stroke="#e45721" fill="#e45721"/>
 <text x="373" y="225" fill="#ffffff" font-family=".AppleSystemUIFont" font-size="13">6</text>
 <text x="353" y="241" fill="#ffffff" font-family=".AppleSystemUIFont" font-size="13">Member</text>
 <text x="350" y="257" fill="#ffffff" font-family=".AppleSystemUIFont" font-size="13">Variables</text>
 <ellipse cx="319" cy="370" rx="69" ry="69" stroke="#fcad56" fill="#fcad56"/>
 <text x="315" y="359" fill="#ffffff" font-family=".AppleSystemUIFont" font-size="13">5</text>
 <text x="302" y="375" fill="#ffffff" font-family=".AppleSystemUIFont" font-size="13">Local</text>
 <text x="291" y="391" fill="#ffffff" font-family=".AppleSystemUIFont" font-size="13">Variables</text>
 <ellipse cx="314" cy="130" rx="48" ry="48" stroke="#90c4e4" fill="#90c4e4"/>
 <text x="311" y="119" fill="#ffffff" font-family=".AppleSystemUIFont" font-size="13">1</text>
 <text x="298" y="135" fill="#ffffff" font-family=".AppleSystemUIFont" font-size="13">Local</text>
 <text x="292" y="151" fill="#ffffff" font-family=".AppleSystemUIFont" font-size="13">Macros</text>
 <ellipse cx="233" cy="76" rx="48" ry="48" stroke="#afd870" fill="#afd870"/>
 <text x="230" y="65" fill="#ffffff" font-family=".AppleSystemUIFont" font-size="13">1</text>
 <text x="216" y="81" fill="#ffffff" font-family=".AppleSystemUIFont" font-size="13">Local</text>
 <text x="215" y="97" fill="#ffffff" font-family=".AppleSystemUIFont" font-size="13">Types</text>
 <ellipse cx="135" cy="77" rx="48" ry="48" stroke="#fcad56" fill="#fcad56"/>
 <text x="132" y="58" fill="#ffffff" font-family=".AppleSystemUIFont" font-size="13">1</text>
 <text x="118" y="74" fill="#ffffff" font-family=".AppleSystemUIFont" font-size="13">Local</text>
 <text x="88" y="90" fill="#ffffff" font-family=".AppleSystemUIFont" font-size="13">Function-Static</text>
 <text x="107" y="106" fill="#ffffff" font-family=".AppleSystemUIFont" font-size="13">Variables</text>
</svg>
