<?xml version="1.0"?>
<svg width="532" height="78" xmlns="http://www.w3.org/2000/svg" version="1.1">
 <text x="18" y="71" fill="#000000" font-family=".AppleSystemUIFont" font-size="13" xml:space='preserve'> 3 </text>
 <rect x="4" y="7" width="44" height="47" stroke="#4e8cb9" fill="#4e8cb9"/>
 <text x="17" y="35" fill="#ffffff" font-family=".AppleSystemUIFont" font-size="13">83</text>
 <text x="59" y="71" fill="#000000" font-family=".AppleSystemUIFont" font-size="13" xml:space='preserve'> 212 </text>
 <rect x="52" y="20" width="44" height="34" stroke="#4e8cb9" fill="#4e8cb9"/>
 <text x="67" y="42" fill="#ffffff" font-family=".AppleSystemUIFont" font-size="13">12</text>
 <text x="107" y="71" fill="#000000" font-family=".AppleSystemUIFont" font-size="13" xml:space='preserve'> 421 </text>
 <rect x="100" y="33" width="44" height="21" stroke="#4e8cb9" fill="#4e8cb9"/>
 <text x="118" y="48" fill="#ffffff" font-family=".AppleSystemUIFont" font-size="13">2</text>
 <text x="154" y="71" fill="#000000" font-family=".AppleSystemUIFont" font-size="13" xml:space='preserve'> 630 </text>
 <rect x="148" y="38" width="44" height="16" stroke="#4e8cb9" fill="#4e8cb9"/>
 <text x="167" y="51" fill="#ffffff" font-family=".AppleSystemUIFont" font-size="13">1</text>
 <text x="202" y="71" fill="#000000" font-family=".AppleSystemUIFont" font-size="13" xml:space='preserve'> 839 </text>
 <rect x="196" y="33" width="44" height="21" stroke="#4e8cb9" fill="#4e8cb9"/>
 <text x="214" y="48" fill="#ffffff" font-family=".AppleSystemUIFont" font-size="13">2</text>
 <text x="245" y="71" fill="#000000" font-family=".AppleSystemUIFont" font-size="13" xml:space='preserve'> 1,048 </text>
 <rect x="244" y="38" width="44" height="16" stroke="#4e8cb9" fill="#4e8cb9"/>
 <text x="263" y="51" fill="#ffffff" font-family=".AppleSystemUIFont" font-size="13">1</text>
 <text x="294" y="71" fill="#000000" font-family=".AppleSystemUIFont" font-size="13" xml:space='preserve'> 1,257 </text>
 <rect x="292" y="38" width="44" height="16" stroke="#4e8cb9" fill="#4e8cb9"/>
 <text x="311" y="51" fill="#ffffff" font-family=".AppleSystemUIFont" font-size="13">1</text>
 <text x="341" y="71" fill="#000000" font-family=".AppleSystemUIFont" font-size="13" xml:space='preserve'> 1,466 </text>
 <text x="389" y="71" fill="#000000" font-family=".AppleSystemUIFont" font-size="13" xml:space='preserve'> 1,675 </text>
 <rect x="388" y="38" width="44" height="16" stroke="#4e8cb9" fill="#4e8cb9"/>
 <text x="407" y="51" fill="#ffffff" font-family=".AppleSystemUIFont" font-size="13">1</text>
 <text x="437" y="71" fill="#000000" font-family=".AppleSystemUIFont" font-size="13" xml:space='preserve'> 1,884 </text>
 <text x="484" y="71" fill="#000000" font-family=".AppleSystemUIFont" font-size="13" xml:space='preserve'> 2,093 </text>
 <rect x="484" y="38" width="44" height="16" stroke="#4e8cb9" fill="#4e8cb9"/>
 <text x="503" y="51" fill="#ffffff" font-family=".AppleSystemUIFont" font-size="13">1</text>
</svg>
