<?xml version="1.0"?>
<svg width="434" height="116" xmlns="http://www.w3.org/2000/svg" version="1.1">
 <text x="15" y="109" fill="#000000" font-family=".AppleSystemUIFont" font-size="13" xml:space='preserve'> 0 </text>
 <rect x="4" y="7" width="39" height="85" stroke="#4e8cb9" fill="#4e8cb9"/>
 <text x="4" y="54" fill="#ffffff" font-family=".AppleSystemUIFont" font-size="13">17,810</text>
 <text x="55" y="109" fill="#000000" font-family=".AppleSystemUIFont" font-size="13" xml:space='preserve'> 57 </text>
 <rect x="47" y="46" width="39" height="46" stroke="#4e8cb9" fill="#4e8cb9"/>
 <text x="58" y="74" fill="#ffffff" font-family=".AppleSystemUIFont" font-size="13">69</text>
 <text x="95" y="109" fill="#000000" font-family=".AppleSystemUIFont" font-size="13" xml:space='preserve'> 114 </text>
 <rect x="90" y="56" width="39" height="36" stroke="#4e8cb9" fill="#4e8cb9"/>
 <text x="102" y="79" fill="#ffffff" font-family=".AppleSystemUIFont" font-size="13">16</text>
 <text x="139" y="109" fill="#000000" font-family=".AppleSystemUIFont" font-size="13" xml:space='preserve'> 171 </text>
 <rect x="133" y="60" width="39" height="32" stroke="#4e8cb9" fill="#4e8cb9"/>
 <text x="145" y="81" fill="#ffffff" font-family=".AppleSystemUIFont" font-size="13">10</text>
 <text x="180" y="109" fill="#000000" font-family=".AppleSystemUIFont" font-size="13" xml:space='preserve'> 228 </text>
 <rect x="176" y="76" width="39" height="16" stroke="#4e8cb9" fill="#4e8cb9"/>
 <text x="192" y="89" fill="#ffffff" font-family=".AppleSystemUIFont" font-size="13">1</text>
 <text x="222" y="109" fill="#000000" font-family=".AppleSystemUIFont" font-size="13" xml:space='preserve'> 285 </text>
 <rect x="219" y="71" width="39" height="21" stroke="#4e8cb9" fill="#4e8cb9"/>
 <text x="234" y="86" fill="#ffffff" font-family=".AppleSystemUIFont" font-size="13">2</text>
 <text x="265" y="109" fill="#000000" font-family=".AppleSystemUIFont" font-size="13" xml:space='preserve'> 342 </text>
 <rect x="262" y="76" width="39" height="16" stroke="#4e8cb9" fill="#4e8cb9"/>
 <text x="278" y="89" fill="#ffffff" font-family=".AppleSystemUIFont" font-size="13">1</text>
 <text x="308" y="109" fill="#000000" font-family=".AppleSystemUIFont" font-size="13" xml:space='preserve'> 399 </text>
 <text x="351" y="109" fill="#000000" font-family=".AppleSystemUIFont" font-size="13" xml:space='preserve'> 456 </text>
 <text x="395" y="109" fill="#000000" font-family=".AppleSystemUIFont" font-size="13" xml:space='preserve'> 513 </text>
 <rect x="391" y="76" width="39" height="16" stroke="#4e8cb9" fill="#4e8cb9"/>
 <text x="407" y="89" fill="#ffffff" font-family=".AppleSystemUIFont" font-size="13">1</text>
</svg>
