<?xml version="1.0"?>
<svg width="296" height="264" xmlns="http://www.w3.org/2000/svg" version="1.1">
 <path d="M 148 204 L 220 204 A 72 72 0 0 0 76 204 Z" stroke="#000000" fill="none"/>
 <path d="M 292 204 A 144 144 0 0 0 282.577 152.766 L 215.289 178.383 A 72 72 0 0 1 220 204 Z" stroke="#e46721" fill="#e46721"/>
 <path d="M 282.577 152.766 A 144 144 0 0 0 277.264 140.542 L 212.632 172.271 A 72 72 0 0 1 215.289 178.383 Z" stroke="#a1d870" fill="#a1d870"/>
 <path d="M 277.264 140.542 A 144 144 0 0 0 262.796 117.064 L 205.398 160.532 A 72 72 0 0 1 212.632 172.271 Z" stroke="#569f38" fill="#569f38"/>
 <path d="M 262.796 117.064 A 144 144 0 0 0 4 203.999 L 76 204 A 72 72 0 0 1 205.398 160.532 Z" stroke="#4e8cb9" fill="#4e8cb9"/>
 <rect x="23" y="4" width="16" height="16" stroke="#4e8cb9" fill="#4e8cb9"/>
 <text x="43" y="17" fill="#000000" font-family=".AppleSystemUIFont" font-size="13">Code: 377</text>
 <rect x="150" y="4" width="16" height="16" stroke="#569f38" fill="#569f38"/>
 <text x="170" y="17" fill="#000000" font-family=".AppleSystemUIFont" font-size="13">Comment: 29</text>
 <rect x="23" y="24" width="16" height="16" stroke="#a1d870" fill="#a1d870"/>
 <text x="43" y="37" fill="#000000" font-family=".AppleSystemUIFont" font-size="13">Preprocessor: 14</text>
 <rect x="150" y="24" width="16" height="16" stroke="#e46721" fill="#e46721"/>
 <text x="170" y="37" fill="#000000" font-family=".AppleSystemUIFont" font-size="13">Blank: 55</text>
</svg>
