<?xml version="1.0"?>
<svg width="296" height="256" xmlns="http://www.w3.org/2000/svg" version="1.1">
 <path d="M 148 200 L 220 200 A 72 72 0 0 0 76 200 Z" stroke="#000000" fill="none"/>
 <path d="M 292 200 A 144 144 0 0 0 291.976 197.389 L 219.988 198.694 A 72 72 0 0 1 220 200 Z" stroke="#90c4e4" fill="#90c4e4"/>
 <path d="M 291.976 197.389 A 144 144 0 0 0 4 200 L 76 200 A 72 72 0 0 1 219.988 198.694 Z" stroke="#569f38" fill="#569f38"/>
 <rect x="36" y="4" width="16" height="16" stroke="#4e8cb9" fill="#4e8cb9"/>
 <text x="56" y="17" fill="#000000" font-family=".AppleSystemUIFont" font-size="13">Not Ignored: 5</text>
 <rect x="150" y="4" width="16" height="16" stroke="#569f38" fill="#569f38"/>
 <text x="170" y="17" fill="#000000" font-family=".AppleSystemUIFont" font-size="13">Baseline: 3789</text>
 <rect x="36" y="24" width="16" height="16" stroke="#90c4e4" fill="#90c4e4"/>
 <text x="56" y="37" fill="#000000" font-family=".AppleSystemUIFont" font-size="13">Annotation: 22</text>
</svg>
